<svg id="Layer_1_copy" data-name="Layer 1 copy" xmlns="http://www.w3.org/2000/svg" viewBox="0 0 754.35 619.66"><title>vlr_logo-black</title><path d="M123.7,326.81V183.23c0-1.37,0-2.75,0-4.12a4.84,4.84,0,0,1,8.61-3c.7.8,1.37,1.64,2,2.47L466.1,593.26,617.91,783.05a36.32,36.32,0,0,1,2.26,2.89c2.45,3.77.67,7.52-3.73,7.88-1.06.09-2.14,0-3.21,0q-113.05,0-226.12.07c-8.34,0-14.55-3-19.73-9.48Q248.9,636.1,130.18,488A28.62,28.62,0,0,1,123.62,469C123.77,421.61,123.7,374.21,123.7,326.81Z" transform="translate(-123.62 -174.26)"/><path d="M877.89,326.77c0,47.56-.07,95.12.08,142.68a27.84,27.84,0,0,1-6.55,18.47q-35.13,43.56-69.92,87.37c-4.93,6.2-11,9.21-19,9.2q-113.53-.12-227.07,0c-.92,0-1.84.06-2.75,0-4.43-.4-6.22-4.12-3.79-7.89.66-1,1.49-1.93,2.25-2.89L866.9,179a23.71,23.71,0,0,1,3-3.48,4.78,4.78,0,0,1,8,3.11,28.29,28.29,0,0,1,.07,4.12Z" transform="translate(-123.62 -174.26)"/></svg>